<svg width="84" height="108" viewBox="0 0 84 108" fill="none" xmlns="http://www.w3.org/2000/svg">
<rect width="84" height="108" rx="10" fill="white"/>
<rect x="9" y="7" width="67" height="67" rx="10" fill="#E27272"/>
<path d="M21.2819 93L25.7619 83.2H26.7839L31.2639 93H30.1719L26.0559 83.802H26.4759L22.3599 93H21.2819ZM23.0459 90.382L23.3539 89.542H29.0519L29.3599 90.382H23.0459ZM36.4271 85.58C37.0244 85.58 37.5471 85.6967 37.9951 85.93C38.4524 86.154 38.8071 86.4993 39.0591 86.966C39.3204 87.4327 39.4511 88.0207 39.4511 88.73V93H38.4571V88.828C38.4571 88.0533 38.2611 87.47 37.8691 87.078C37.4864 86.6767 36.9451 86.476 36.2451 86.476C35.7224 86.476 35.2651 86.5833 34.8731 86.798C34.4904 87.0033 34.1917 87.3067 33.9771 87.708C33.7717 88.1 33.6691 88.576 33.6691 89.136V93H32.6751V85.65H33.6271V87.666L33.4731 87.288C33.7064 86.756 34.0797 86.3407 34.5931 86.042C35.1064 85.734 35.7177 85.58 36.4271 85.58ZM45.272 95.786C44.6 95.786 43.956 95.688 43.34 95.492C42.724 95.296 42.2247 95.016 41.842 94.652L42.346 93.896C42.6913 94.204 43.116 94.4467 43.62 94.624C44.1333 94.8107 44.6747 94.904 45.244 94.904C46.1773 94.904 46.8633 94.6847 47.302 94.246C47.7407 93.8167 47.96 93.1447 47.96 92.23V90.396L48.1 89.136L48.002 87.876V85.65H48.954V92.104C48.954 93.3733 48.6413 94.302 48.016 94.89C47.4 95.4873 46.4853 95.786 45.272 95.786ZM45.09 92.72C44.39 92.72 43.76 92.5707 43.2 92.272C42.64 91.964 42.1967 91.5393 41.87 90.998C41.5527 90.4567 41.394 89.836 41.394 89.136C41.394 88.436 41.5527 87.82 41.87 87.288C42.1967 86.7467 42.64 86.3267 43.2 86.028C43.76 85.7293 44.39 85.58 45.09 85.58C45.7433 85.58 46.3313 85.7153 46.854 85.986C47.3767 86.2567 47.792 86.658 48.1 87.19C48.408 87.722 48.562 88.3707 48.562 89.136C48.562 89.9013 48.408 90.55 48.1 91.082C47.792 91.614 47.3767 92.02 46.854 92.3C46.3313 92.58 45.7433 92.72 45.09 92.72ZM45.188 91.838C45.7293 91.838 46.21 91.726 46.63 91.502C47.05 91.2687 47.3813 90.9513 47.624 90.55C47.8667 90.1393 47.988 89.668 47.988 89.136C47.988 88.604 47.8667 88.1373 47.624 87.736C47.3813 87.3347 47.05 87.022 46.63 86.798C46.21 86.5647 45.7293 86.448 45.188 86.448C44.656 86.448 44.1753 86.5647 43.746 86.798C43.326 87.022 42.9947 87.3347 42.752 87.736C42.5187 88.1373 42.402 88.604 42.402 89.136C42.402 89.668 42.5187 90.1393 42.752 90.55C42.9947 90.9513 43.326 91.2687 43.746 91.502C44.1753 91.726 44.656 91.838 45.188 91.838ZM51.72 93V85.65H52.672V87.652L52.574 87.302C52.7793 86.742 53.1247 86.3173 53.61 86.028C54.0953 85.7293 54.6973 85.58 55.416 85.58V86.546C55.3787 86.546 55.3413 86.546 55.304 86.546C55.2667 86.5367 55.2293 86.532 55.192 86.532C54.4173 86.532 53.8107 86.77 53.372 87.246C52.9333 87.7127 52.714 88.38 52.714 89.248V93H51.72ZM57.6002 95.786C57.2549 95.786 56.9235 95.73 56.6062 95.618C56.2982 95.506 56.0322 95.338 55.8082 95.114L56.2702 94.372C56.4569 94.5493 56.6575 94.6847 56.8722 94.778C57.0962 94.8807 57.3435 94.932 57.6142 94.932C57.9409 94.932 58.2209 94.8387 58.4542 94.652C58.6969 94.4747 58.9255 94.1573 59.1402 93.7L59.6162 92.622L59.7282 92.468L62.7522 85.65H63.7322L60.0502 93.882C59.8449 94.358 59.6162 94.736 59.3642 95.016C59.1215 95.296 58.8555 95.492 58.5662 95.604C58.2769 95.7253 57.9549 95.786 57.6002 95.786ZM59.5602 93.21L56.1722 85.65H57.2082L60.2042 92.398L59.5602 93.21Z" fill="black"/>
<path d="M20 58L33.1429 47L43.4286 58L53.7143 47L64 58" stroke="black" stroke-width="2"/>
</svg>
