<svg width="84" height="108" viewBox="0 0 84 108" fill="none" xmlns="http://www.w3.org/2000/svg">
<rect width="84" height="108" rx="10" fill="white"/>
<rect x="9" y="7" width="66" height="66" rx="10" fill="#C0CEFE"/>
<path d="M61 55.8099C55.1875 49.6612 39.85 41.2911 25 57" stroke="black" stroke-width="3"/>
<path d="M33.1183 94.084C32.3903 94.084 31.6903 93.9673 31.0183 93.734C30.3556 93.4913 29.8423 93.1833 29.4783 92.81L29.8843 92.012C30.2296 92.348 30.6916 92.6327 31.2703 92.866C31.8583 93.09 32.4743 93.202 33.1183 93.202C33.7343 93.202 34.2336 93.1273 34.6163 92.978C35.0083 92.8193 35.293 92.6093 35.4703 92.348C35.657 92.0867 35.7503 91.7973 35.7503 91.48C35.7503 91.0973 35.6383 90.7893 35.4143 90.556C35.1996 90.3227 34.915 90.1407 34.5603 90.01C34.2056 89.87 33.8136 89.7487 33.3843 89.646C32.955 89.5433 32.5256 89.436 32.0963 89.324C31.667 89.2027 31.2703 89.044 30.9063 88.848C30.5516 88.652 30.2623 88.3953 30.0383 88.078C29.8236 87.7513 29.7163 87.3267 29.7163 86.804C29.7163 86.3187 29.8423 85.8753 30.0943 85.474C30.3556 85.0633 30.7523 84.7367 31.2843 84.494C31.8163 84.242 32.4976 84.116 33.3283 84.116C33.879 84.116 34.425 84.1953 34.9663 84.354C35.5076 84.5033 35.9743 84.7133 36.3663 84.984L36.0163 85.81C35.5963 85.53 35.1483 85.3247 34.6723 85.194C34.2056 85.0633 33.753 84.998 33.3143 84.998C32.7263 84.998 32.241 85.0773 31.8583 85.236C31.4756 85.3947 31.191 85.6093 31.0043 85.88C30.827 86.1413 30.7383 86.44 30.7383 86.776C30.7383 87.1587 30.8456 87.4667 31.0603 87.7C31.2843 87.9333 31.5736 88.1153 31.9283 88.246C32.2923 88.3767 32.689 88.4933 33.1183 88.596C33.5476 88.6987 33.9723 88.8107 34.3923 88.932C34.8216 89.0533 35.2136 89.212 35.5683 89.408C35.9323 89.5947 36.2216 89.8467 36.4363 90.164C36.6603 90.4813 36.7723 90.8967 36.7723 91.41C36.7723 91.886 36.6416 92.3293 36.3803 92.74C36.119 93.1413 35.7176 93.468 35.1763 93.72C34.6443 93.9627 33.9583 94.084 33.1183 94.084ZM43.4256 94V92.376L43.3836 92.11V89.394C43.3836 88.7687 43.2063 88.288 42.8516 87.952C42.5063 87.616 41.9883 87.448 41.2976 87.448C40.8216 87.448 40.3689 87.5273 39.9396 87.686C39.5103 87.8447 39.1463 88.0547 38.8476 88.316L38.3996 87.574C38.7729 87.2567 39.2209 87.014 39.7436 86.846C40.2663 86.6687 40.8169 86.58 41.3956 86.58C42.3476 86.58 43.0803 86.818 43.5936 87.294C44.1163 87.7607 44.3776 88.4747 44.3776 89.436V94H43.4256ZM40.8916 94.07C40.3409 94.07 39.8603 93.9813 39.4496 93.804C39.0483 93.6173 38.7403 93.3653 38.5256 93.048C38.3109 92.7213 38.2036 92.348 38.2036 91.928C38.2036 91.5453 38.2923 91.2 38.4696 90.892C38.6563 90.5747 38.9549 90.3227 39.3656 90.136C39.7856 89.94 40.3456 89.842 41.0456 89.842H43.5796V90.584H41.0736C40.3643 90.584 39.8696 90.71 39.5896 90.962C39.3189 91.214 39.1836 91.5267 39.1836 91.9C39.1836 92.32 39.3469 92.656 39.6736 92.908C40.0003 93.16 40.4576 93.286 41.0456 93.286C41.6056 93.286 42.0863 93.16 42.4876 92.908C42.8983 92.6467 43.1969 92.2733 43.3836 91.788L43.6076 92.474C43.4209 92.9593 43.0943 93.3467 42.6276 93.636C42.1703 93.9253 41.5916 94.07 40.8916 94.07ZM50.0034 94.07C49.3034 94.07 48.6734 93.9113 48.1134 93.594C47.5627 93.2767 47.1287 92.838 46.8114 92.278C46.4941 91.7087 46.3354 91.0553 46.3354 90.318C46.3354 89.5713 46.4941 88.918 46.8114 88.358C47.1287 87.798 47.5627 87.364 48.1134 87.056C48.6734 86.7387 49.3034 86.58 50.0034 86.58C50.6474 86.58 51.2214 86.7247 51.7254 87.014C52.2387 87.3033 52.6447 87.728 52.9434 88.288C53.2514 88.8387 53.4054 89.5153 53.4054 90.318C53.4054 91.1113 53.2561 91.788 52.9574 92.348C52.6587 92.908 52.2527 93.3373 51.7394 93.636C51.2354 93.9253 50.6567 94.07 50.0034 94.07ZM50.0734 93.188C50.5961 93.188 51.0627 93.0713 51.4734 92.838C51.8934 92.5953 52.2201 92.2593 52.4534 91.83C52.6961 91.3913 52.8174 90.8873 52.8174 90.318C52.8174 89.7393 52.6961 89.2353 52.4534 88.806C52.2201 88.3767 51.8934 88.0453 51.4734 87.812C51.0627 87.5693 50.5961 87.448 50.0734 87.448C49.5601 87.448 49.0981 87.5693 48.6874 87.812C48.2767 88.0453 47.9501 88.3767 47.7074 88.806C47.4647 89.2353 47.3434 89.7393 47.3434 90.318C47.3434 90.8873 47.4647 91.3913 47.7074 91.83C47.9501 92.2593 48.2767 92.5953 48.6874 92.838C49.0981 93.0713 49.5601 93.188 50.0734 93.188ZM52.8454 94V91.788L52.9434 90.304L52.8034 88.82V83.612H53.7974V94H52.8454Z" fill="black"/>
</svg>
