<svg width="84" height="108" viewBox="0 0 84 108" fill="none" xmlns="http://www.w3.org/2000/svg">
<rect width="84" height="108" rx="10" fill="white"/>
<rect x="9" y="7" width="66" height="67" rx="10" fill="#CCCFD6"/>
<path d="M13.652 93L18.132 83.2H19.154L23.634 93H22.542L18.426 83.802H18.846L14.73 93H13.652ZM15.416 90.382L15.724 89.542H21.422L21.73 90.382H15.416ZM26.566 93L23.304 85.65H24.34L27.336 92.468H26.846L29.884 85.65H30.864L27.588 93H26.566ZM35.1809 93.07C34.4155 93.07 33.7435 92.9113 33.1649 92.594C32.5862 92.2673 32.1335 91.824 31.8069 91.264C31.4802 90.6947 31.3169 90.046 31.3169 89.318C31.3169 88.59 31.4709 87.946 31.7789 87.386C32.0962 86.826 32.5255 86.3873 33.0669 86.07C33.6175 85.7433 34.2335 85.58 34.9149 85.58C35.6055 85.58 36.2169 85.7387 36.7489 86.056C37.2902 86.364 37.7149 86.8027 38.0229 87.372C38.3309 87.932 38.4849 88.5807 38.4849 89.318C38.4849 89.3647 38.4802 89.416 38.4709 89.472C38.4709 89.5187 38.4709 89.57 38.4709 89.626H32.0729V88.884H37.9389L37.5469 89.178C37.5469 88.646 37.4302 88.1747 37.1969 87.764C36.9729 87.344 36.6649 87.0173 36.2729 86.784C35.8809 86.5507 35.4282 86.434 34.9149 86.434C34.4109 86.434 33.9582 86.5507 33.5569 86.784C33.1555 87.0173 32.8429 87.344 32.6189 87.764C32.3949 88.184 32.2829 88.6647 32.2829 89.206V89.36C32.2829 89.92 32.4042 90.4147 32.6469 90.844C32.8989 91.264 33.2442 91.5953 33.6829 91.838C34.1309 92.0713 34.6395 92.188 35.2089 92.188C35.6569 92.188 36.0722 92.1087 36.4549 91.95C36.8469 91.7913 37.1829 91.5487 37.4629 91.222L38.0229 91.866C37.6962 92.258 37.2855 92.5567 36.7909 92.762C36.3055 92.9673 35.7689 93.07 35.1809 93.07ZM40.5081 93V85.65H41.4601V87.652L41.3621 87.302C41.5674 86.742 41.9127 86.3173 42.3981 86.028C42.8834 85.7293 43.4854 85.58 44.2041 85.58V86.546C44.1667 86.546 44.1294 86.546 44.0921 86.546C44.0547 86.5367 44.0174 86.532 43.9801 86.532C43.2054 86.532 42.5987 86.77 42.1601 87.246C41.7214 87.7127 41.5021 88.38 41.5021 89.248V93H40.5081ZM50.077 93V91.376L50.035 91.11V88.394C50.035 87.7687 49.8576 87.288 49.503 86.952C49.1576 86.616 48.6396 86.448 47.949 86.448C47.473 86.448 47.0203 86.5273 46.591 86.686C46.1616 86.8447 45.7976 87.0547 45.499 87.316L45.051 86.574C45.4243 86.2567 45.8723 86.014 46.395 85.846C46.9176 85.6687 47.4683 85.58 48.047 85.58C48.999 85.58 49.7316 85.818 50.245 86.294C50.7676 86.7607 51.029 87.4747 51.029 88.436V93H50.077ZM47.543 93.07C46.9923 93.07 46.5116 92.9813 46.101 92.804C45.6996 92.6173 45.3916 92.3653 45.177 92.048C44.9623 91.7213 44.855 91.348 44.855 90.928C44.855 90.5453 44.9436 90.2 45.121 89.892C45.3076 89.5747 45.6063 89.3227 46.017 89.136C46.437 88.94 46.997 88.842 47.697 88.842H50.231V89.584H47.725C47.0156 89.584 46.521 89.71 46.241 89.962C45.9703 90.214 45.835 90.5267 45.835 90.9C45.835 91.32 45.9983 91.656 46.325 91.908C46.6516 92.16 47.109 92.286 47.697 92.286C48.257 92.286 48.7376 92.16 49.139 91.908C49.5496 91.6467 49.8483 91.2733 50.035 90.788L50.259 91.474C50.0723 91.9593 49.7456 92.3467 49.279 92.636C48.8216 92.9253 48.243 93.07 47.543 93.07ZM56.8648 95.786C56.1928 95.786 55.5488 95.688 54.9328 95.492C54.3168 95.296 53.8174 95.016 53.4348 94.652L53.9388 93.896C54.2841 94.204 54.7088 94.4467 55.2128 94.624C55.7261 94.8107 56.2674 94.904 56.8368 94.904C57.7701 94.904 58.4561 94.6847 58.8948 94.246C59.3334 93.8167 59.5528 93.1447 59.5528 92.23V90.396L59.6928 89.136L59.5948 87.876V85.65H60.5468V92.104C60.5468 93.3733 60.2341 94.302 59.6088 94.89C58.9928 95.4873 58.0781 95.786 56.8648 95.786ZM56.6828 92.72C55.9828 92.72 55.3528 92.5707 54.7928 92.272C54.2328 91.964 53.7894 91.5393 53.4628 90.998C53.1454 90.4567 52.9868 89.836 52.9868 89.136C52.9868 88.436 53.1454 87.82 53.4628 87.288C53.7894 86.7467 54.2328 86.3267 54.7928 86.028C55.3528 85.7293 55.9828 85.58 56.6828 85.58C57.3361 85.58 57.9241 85.7153 58.4468 85.986C58.9694 86.2567 59.3848 86.658 59.6928 87.19C60.0008 87.722 60.1548 88.3707 60.1548 89.136C60.1548 89.9013 60.0008 90.55 59.6928 91.082C59.3848 91.614 58.9694 92.02 58.4468 92.3C57.9241 92.58 57.3361 92.72 56.6828 92.72ZM56.7808 91.838C57.3221 91.838 57.8028 91.726 58.2228 91.502C58.6428 91.2687 58.9741 90.9513 59.2168 90.55C59.4594 90.1393 59.5808 89.668 59.5808 89.136C59.5808 88.604 59.4594 88.1373 59.2168 87.736C58.9741 87.3347 58.6428 87.022 58.2228 86.798C57.8028 86.5647 57.3221 86.448 56.7808 86.448C56.2488 86.448 55.7681 86.5647 55.3388 86.798C54.9188 87.022 54.5874 87.3347 54.3448 87.736C54.1114 88.1373 53.9948 88.604 53.9948 89.136C53.9948 89.668 54.1114 90.1393 54.3448 90.55C54.5874 90.9513 54.9188 91.2687 55.3388 91.502C55.7681 91.726 56.2488 91.838 56.7808 91.838ZM66.4348 93.07C65.6694 93.07 64.9974 92.9113 64.4188 92.594C63.8401 92.2673 63.3874 91.824 63.0608 91.264C62.7341 90.6947 62.5708 90.046 62.5708 89.318C62.5708 88.59 62.7248 87.946 63.0328 87.386C63.3501 86.826 63.7794 86.3873 64.3208 86.07C64.8714 85.7433 65.4874 85.58 66.1688 85.58C66.8594 85.58 67.4708 85.7387 68.0028 86.056C68.5441 86.364 68.9688 86.8027 69.2768 87.372C69.5848 87.932 69.7388 88.5807 69.7388 89.318C69.7388 89.3647 69.7341 89.416 69.7248 89.472C69.7248 89.5187 69.7248 89.57 69.7248 89.626H63.3268V88.884H69.1928L68.8008 89.178C68.8008 88.646 68.6841 88.1747 68.4508 87.764C68.2268 87.344 67.9188 87.0173 67.5268 86.784C67.1348 86.5507 66.6821 86.434 66.1688 86.434C65.6648 86.434 65.2121 86.5507 64.8108 86.784C64.4094 87.0173 64.0968 87.344 63.8728 87.764C63.6488 88.184 63.5368 88.6647 63.5368 89.206V89.36C63.5368 89.92 63.6581 90.4147 63.9008 90.844C64.1528 91.264 64.4981 91.5953 64.9368 91.838C65.3848 92.0713 65.8934 92.188 66.4628 92.188C66.9108 92.188 67.3261 92.1087 67.7088 91.95C68.1008 91.7913 68.4368 91.5487 68.7168 91.222L69.2768 91.866C68.9501 92.258 68.5394 92.5567 68.0448 92.762C67.5594 92.9673 67.0228 93.07 66.4348 93.07Z" fill="black"/>
<path d="M29 57L60 49" stroke="black" stroke-width="2"/>
</svg>
