<svg width="84" height="108" viewBox="0 0 84 108" fill="none" xmlns="http://www.w3.org/2000/svg">
<rect width="84" height="108" rx="10" fill="white"/>
<rect x="9" y="7" width="67" height="66" rx="10" fill="#FFE142"/>
<path d="M24 47.1901C29.974 53.3388 45.7375 61.7089 61 46" stroke="black" stroke-width="3"/>
<path d="M28.7611 84.2H29.7831V94H28.7611V84.2ZM22.6291 94H21.5931V84.2H22.6291V94ZM28.8591 89.478H22.5171V88.568H28.8591V89.478ZM37.3777 94V92.376L37.3357 92.11V89.394C37.3357 88.7687 37.1584 88.288 36.8037 87.952C36.4584 87.616 35.9404 87.448 35.2497 87.448C34.7737 87.448 34.3211 87.5273 33.8917 87.686C33.4624 87.8447 33.0984 88.0547 32.7997 88.316L32.3517 87.574C32.7251 87.2567 33.1731 87.014 33.6957 86.846C34.2184 86.6687 34.7691 86.58 35.3477 86.58C36.2997 86.58 37.0324 86.818 37.5457 87.294C38.0684 87.7607 38.3297 88.4747 38.3297 89.436V94H37.3777ZM34.8437 94.07C34.2931 94.07 33.8124 93.9813 33.4017 93.804C33.0004 93.6173 32.6924 93.3653 32.4777 93.048C32.2631 92.7213 32.1557 92.348 32.1557 91.928C32.1557 91.5453 32.2444 91.2 32.4217 90.892C32.6084 90.5747 32.9071 90.3227 33.3177 90.136C33.7377 89.94 34.2977 89.842 34.9977 89.842H37.5317V90.584H35.0257C34.3164 90.584 33.8217 90.71 33.5417 90.962C33.2711 91.214 33.1357 91.5267 33.1357 91.9C33.1357 92.32 33.2991 92.656 33.6257 92.908C33.9524 93.16 34.4097 93.286 34.9977 93.286C35.5577 93.286 36.0384 93.16 36.4397 92.908C36.8504 92.6467 37.1491 92.2733 37.3357 91.788L37.5597 92.474C37.3731 92.9593 37.0464 93.3467 36.5797 93.636C36.1224 93.9253 35.5437 94.07 34.8437 94.07ZM44.8236 94.07C44.1889 94.07 43.6149 93.9253 43.1016 93.636C42.5882 93.3373 42.1776 92.9127 41.8696 92.362C41.5709 91.802 41.4216 91.1207 41.4216 90.318C41.4216 89.5153 41.5709 88.8387 41.8696 88.288C42.1682 87.728 42.5742 87.3033 43.0876 87.014C43.6009 86.7247 44.1796 86.58 44.8236 86.58C45.5236 86.58 46.1489 86.7387 46.6996 87.056C47.2596 87.364 47.6982 87.8027 48.0156 88.372C48.3329 88.932 48.4916 89.5807 48.4916 90.318C48.4916 91.0647 48.3329 91.718 48.0156 92.278C47.6982 92.838 47.2596 93.2767 46.6996 93.594C46.1489 93.9113 45.5236 94.07 44.8236 94.07ZM41.0296 96.716V86.65H41.9816V88.862L41.8836 90.332L42.0236 91.816V96.716H41.0296ZM44.7536 93.188C45.2762 93.188 45.7429 93.0713 46.1536 92.838C46.5642 92.5953 46.8909 92.2593 47.1336 91.83C47.3762 91.3913 47.4976 90.8873 47.4976 90.318C47.4976 89.7487 47.3762 89.2493 47.1336 88.82C46.8909 88.3907 46.5642 88.0547 46.1536 87.812C45.7429 87.5693 45.2762 87.448 44.7536 87.448C44.2309 87.448 43.7596 87.5693 43.3396 87.812C42.9289 88.0547 42.6022 88.3907 42.3596 88.82C42.1262 89.2493 42.0096 89.7487 42.0096 90.318C42.0096 90.8873 42.1262 91.3913 42.3596 91.83C42.6022 92.2593 42.9289 92.5953 43.3396 92.838C43.7596 93.0713 44.2309 93.188 44.7536 93.188ZM54.3118 94.07C53.6772 94.07 53.1032 93.9253 52.5898 93.636C52.0765 93.3373 51.6658 92.9127 51.3578 92.362C51.0592 91.802 50.9098 91.1207 50.9098 90.318C50.9098 89.5153 51.0592 88.8387 51.3578 88.288C51.6565 87.728 52.0625 87.3033 52.5758 87.014C53.0892 86.7247 53.6678 86.58 54.3118 86.58C55.0118 86.58 55.6372 86.7387 56.1878 87.056C56.7478 87.364 57.1865 87.8027 57.5038 88.372C57.8212 88.932 57.9798 89.5807 57.9798 90.318C57.9798 91.0647 57.8212 91.718 57.5038 92.278C57.1865 92.838 56.7478 93.2767 56.1878 93.594C55.6372 93.9113 55.0118 94.07 54.3118 94.07ZM50.5178 96.716V86.65H51.4698V88.862L51.3718 90.332L51.5118 91.816V96.716H50.5178ZM54.2418 93.188C54.7645 93.188 55.2312 93.0713 55.6418 92.838C56.0525 92.5953 56.3792 92.2593 56.6218 91.83C56.8645 91.3913 56.9858 90.8873 56.9858 90.318C56.9858 89.7487 56.8645 89.2493 56.6218 88.82C56.3792 88.3907 56.0525 88.0547 55.6418 87.812C55.2312 87.5693 54.7645 87.448 54.2418 87.448C53.7192 87.448 53.2478 87.5693 52.8278 87.812C52.4172 88.0547 52.0905 88.3907 51.8478 88.82C51.6145 89.2493 51.4978 89.7487 51.4978 90.318C51.4978 90.8873 51.6145 91.3913 51.8478 91.83C52.0905 92.2593 52.4172 92.5953 52.8278 92.838C53.2478 93.0713 53.7192 93.188 54.2418 93.188ZM59.857 96.786C59.5117 96.786 59.1804 96.73 58.863 96.618C58.555 96.506 58.289 96.338 58.065 96.114L58.527 95.372C58.7137 95.5493 58.9144 95.6847 59.129 95.778C59.353 95.8807 59.6004 95.932 59.871 95.932C60.1977 95.932 60.4777 95.8387 60.711 95.652C60.9537 95.4747 61.1824 95.1573 61.397 94.7L61.873 93.622L61.985 93.468L65.009 86.65H65.989L62.307 94.882C62.1017 95.358 61.873 95.736 61.621 96.016C61.3784 96.296 61.1124 96.492 60.823 96.604C60.5337 96.7253 60.2117 96.786 59.857 96.786ZM61.817 94.21L58.429 86.65H59.465L62.461 93.398L61.817 94.21Z" fill="black"/>
</svg>
